<svg width="261" height="44" viewBox="0 0 261 44" fill="none" xmlns="http://www.w3.org/2000/svg">
<g clip-path="url(#clip0_710_17446)">
<path d="M222.347 9.92438C225.085 9.92438 227.285 10.8044 228.947 12.5155C230.609 14.2266 231.44 16.6222 231.44 19.7022V33.0977H225.671V20.4844C225.671 18.6755 225.231 17.3066 224.302 16.3288C223.374 15.351 222.151 14.8622 220.587 14.8622C219.022 14.8622 217.751 15.351 216.774 16.3288C215.845 17.3066 215.405 18.6755 215.405 20.4844V33.0977H209.636V10.2177H215.405V13.0533C216.187 12.0755 217.165 11.2933 218.338 10.7555C219.56 10.1688 220.88 9.87549 222.298 9.87549L222.347 9.92438Z" fill="#FCFCFC"/>
<path d="M207.68 10.3646L193.551 43.9512H187.391L192.329 32.5601L183.187 10.3157H189.64L195.507 26.2534L201.471 10.3157H207.631L207.68 10.3646Z" fill="#FCFCFC"/>
<path d="M157.862 21.56C157.862 19.2622 158.302 17.2089 159.231 15.4C160.16 13.5911 161.431 12.2222 163.045 11.2933C164.658 10.3156 166.418 9.87557 168.373 9.87557C170.329 9.87557 171.258 10.2178 172.627 10.8533C173.996 11.4889 175.022 12.32 175.853 13.3956V2.54224H181.72V33H175.853V29.6267C175.12 30.7511 174.142 31.68 172.871 32.3645C171.6 33.0489 170.085 33.3911 168.373 33.3911C166.662 33.3911 164.707 32.9022 163.093 31.9245C161.48 30.9467 160.258 29.5289 159.28 27.7689C158.351 25.96 157.911 23.9067 157.911 21.56H157.862ZM175.805 21.6089C175.805 20.1911 175.511 19.0178 174.973 18.04C174.436 17.0133 173.702 16.2311 172.773 15.7422C171.845 15.2045 170.818 14.9111 169.791 14.9111C168.765 14.9111 167.738 15.1556 166.809 15.6933C165.88 16.2311 165.147 16.9645 164.609 17.9911C164.071 18.9689 163.778 20.1422 163.778 21.5111C163.778 22.88 164.071 24.1022 164.609 25.1289C165.196 26.1556 165.929 26.9378 166.809 27.4756C167.738 28.0133 168.716 28.3067 169.791 28.3067C170.867 28.3067 171.845 28.0622 172.773 27.5245C173.702 26.9867 174.436 26.2045 174.973 25.2267C175.511 24.2 175.805 23.0267 175.805 21.6089Z" fill="#FCFCFC"/>
<path d="M131.56 21.609C131.56 19.3112 132 17.2579 132.928 15.449C133.857 13.6401 135.128 12.2712 136.693 11.3423C138.306 10.3646 140.066 9.92456 142.022 9.92456C143.977 9.92456 145.2 10.2668 146.471 10.9512C147.742 11.6357 148.768 12.5157 149.551 13.5423V10.2668H155.368V33.0979H149.551V29.7735C148.817 30.849 147.791 31.729 146.471 32.4623C145.2 33.1468 143.684 33.489 141.973 33.489C140.262 33.489 138.306 33.0001 136.693 32.0223C135.128 31.0446 133.857 29.6268 132.928 27.8668C132 26.0579 131.56 24.0046 131.56 21.6579V21.609ZM149.502 21.7068C149.502 20.289 149.208 19.1157 148.671 18.1379C148.133 17.1112 147.4 16.329 146.471 15.8401C145.542 15.3023 144.515 15.009 143.488 15.009C142.462 15.009 141.435 15.2534 140.506 15.7912C139.577 16.329 138.844 17.0623 138.306 18.089C137.768 19.0668 137.475 20.2401 137.475 21.609C137.475 22.9779 137.768 24.2001 138.306 25.2268C138.893 26.2534 139.626 27.0357 140.506 27.5735C141.435 28.1112 142.413 28.4046 143.488 28.4046C144.564 28.4046 145.542 28.1601 146.471 27.6223C147.4 27.0846 148.133 26.3023 148.671 25.3246C149.208 24.2979 149.502 23.1246 149.502 21.7068Z" fill="#FCFCFC"/>
<path d="M123.542 13.7868C124.276 12.5646 125.253 11.6357 126.427 10.9512C127.649 10.2668 129.018 9.92456 130.533 9.92456V15.9868H129.018C127.209 15.9868 125.84 16.4268 124.911 17.2579C123.982 18.089 123.542 19.6046 123.542 21.7068V33.0979H117.773V10.2179H123.542V13.7379V13.7868Z" fill="#FCFCFC"/>
<path d="M109.609 14.9599V26.0088C109.609 26.791 109.805 27.3288 110.147 27.7199C110.538 28.0621 111.174 28.2088 112.054 28.2088H114.743V33.0488H111.125C106.285 33.0488 103.84 30.7021 103.84 25.9599V14.9599H101.103V10.2177H103.84V4.59546H109.658V10.2177H114.743V14.9599H109.658H109.609Z" fill="#FCFCFC"/>
<path d="M99.4891 21.1689C99.4891 22.0001 99.4402 22.7334 99.3425 23.3689H82.6714C82.818 25.0312 83.4047 26.3023 84.3825 27.2312C85.4091 28.1601 86.6314 28.6489 88.1469 28.6489C90.298 28.6489 91.8136 27.7201 92.7425 25.9112H98.9513C98.3158 28.1112 97.0447 29.9201 95.138 31.3378C93.2802 32.7556 90.9825 33.4401 88.2447 33.4401C85.5069 33.4401 84.0891 32.9512 82.3291 32.0223C80.618 31.0445 79.2491 29.6267 78.2714 27.8667C77.2936 26.0578 76.8047 24.0045 76.8047 21.7067C76.8047 19.4089 77.2936 17.2578 78.2714 15.4978C79.2491 13.6889 80.5691 12.3201 82.3291 11.3912C84.0402 10.4134 86.0447 9.97339 88.2936 9.97339C90.5425 9.97339 92.4002 10.4623 94.1114 11.3912C95.8225 12.3201 97.1914 13.6401 98.1202 15.4001C99.098 17.1112 99.5869 19.0667 99.5869 21.2667L99.4891 21.1689ZM93.5247 19.5556C93.5247 18.0889 92.938 16.9156 91.9114 16.0356C90.8847 15.1067 89.6136 14.6667 88.098 14.6667C86.5825 14.6667 85.458 15.1067 84.4802 15.9867C83.5025 16.8178 82.9158 18.0401 82.7202 19.5556H93.5736H93.5247Z" fill="#FCFCFC"/>
<path d="M65.2179 9.92438C67.9557 9.92438 70.1557 10.8044 71.8179 12.5155C73.4801 14.2266 74.3601 16.6222 74.3601 19.7022V33.0977H68.5912V20.4844C68.5912 18.6755 68.1512 17.3066 67.2223 16.3288C66.2934 15.351 65.0712 14.8622 63.5068 14.8622C61.9423 14.8622 60.6223 15.351 59.6934 16.3288C58.7646 17.3066 58.3246 18.6755 58.3246 20.4844V33.0977H52.5557V10.2177H58.3246V13.0533C59.1068 12.0755 60.0846 11.2933 61.2579 10.7555C62.4801 10.1688 63.8001 9.87549 65.2179 9.87549V9.92438Z" fill="#FCFCFC"/>
<path d="M256.667 21.1689C256.667 22.0001 256.618 22.7334 256.52 23.3689H239.849C239.996 25.0312 240.582 26.3023 241.56 27.2312C242.587 28.1601 243.809 28.6489 245.325 28.6489C247.476 28.6489 248.991 27.7201 249.92 25.9112H256.129C255.493 28.1112 254.222 29.9201 252.316 31.3378C250.458 32.7556 248.16 33.4401 245.422 33.4401C242.685 33.4401 241.267 32.9512 239.507 32.0223C237.796 31.0445 236.427 29.6267 235.449 27.8667C234.471 26.0578 234.031 24.0045 234.031 21.7067C234.031 19.4089 234.52 17.2578 235.449 15.4978C236.427 13.6889 237.747 12.3201 239.507 11.3912C241.218 10.4134 243.222 9.97339 245.471 9.97339C247.72 9.97339 249.578 10.4623 251.289 11.3912C253 12.3201 254.369 13.6401 255.298 15.4001C256.276 17.1112 256.716 19.0667 256.716 21.2667L256.667 21.1689ZM250.702 19.5556C250.702 18.0889 250.116 16.9156 249.089 16.0356C248.062 15.1067 246.791 14.6667 245.276 14.6667C243.76 14.6667 242.636 15.1067 241.658 15.9867C240.68 16.8178 240.093 18.0401 239.898 19.5556H250.751H250.702Z" fill="#FCFCFC"/>
<path fill-rule="evenodd" clip-rule="evenodd" d="M15.1062 0.195543C14.9106 0.146655 14.764 0.195543 14.5684 0.244432C14.5684 0.244432 14.4706 0.293321 14.4706 0.34221C14.4218 0.391099 14.3729 0.488877 14.324 0.586655L0.732862 41.7511C0.635084 42.0933 0.781751 42.4355 1.12397 42.5333C1.4662 42.6311 1.80842 42.4844 1.9062 42.1422L15.1062 2.1511L38.3773 36.52C38.5729 36.8133 42.7773 42.68 43.0706 42.4844C43.364 42.2889 42.924 40.5778 42.7284 40.2844L15.4484 0.439988C15.3995 0.34221 15.3018 0.244432 15.204 0.195543H15.1062Z" fill="#3DB174"/>
<path fill-rule="evenodd" clip-rule="evenodd" d="M7.87107 0.0976562C8.01774 0.0976562 8.2133 0.195434 8.31107 0.342101L42.5822 40.6265C42.8266 40.9199 43.0222 41.9954 42.7289 42.2399C42.4355 42.4843 40.1866 39.991 39.9422 39.7465L8.2133 2.29766L1.75996 42.9732C1.71107 43.3154 1.36885 43.6088 0.97774 43.511C0.635518 43.4621 0.342184 43.1199 0.439962 42.7288L7.13774 0.684323C7.13774 0.684323 7.13774 0.635434 7.13774 0.586545C7.13774 0.586545 7.13774 0.488767 7.18663 0.439878C7.18663 0.39099 7.28441 0.293212 7.3333 0.244323C7.43107 0.195434 7.52885 0.146545 7.62663 0.0976562C7.67552 0.0976562 7.7733 0.0976562 7.82218 0.0976562H7.87107Z" fill="#3DB174"/>
<path fill-rule="evenodd" clip-rule="evenodd" d="M43.5111 0.342222C43.5111 0.146667 43.3644 0 43.1688 0C42.9733 0 43.1688 0 43.1199 0C43.071 0 43.0222 0 42.9733 0.0977778L37.1066 6.11111L36.1288 0.537778C36.1288 0.44 36.0311 0.342222 35.9333 0.342222C35.9333 0.342222 35.8844 0.342222 35.8355 0.342222C35.7866 0.342222 35.6888 0.342222 35.6399 0.44L31.1422 5.96444L29.2844 0.537778C29.2844 0.537778 29.2844 0.537778 29.2844 0.488889C29.2844 0.44 29.1866 0.391111 29.1377 0.342222C29.1377 0.342222 29.1377 0.342222 29.0888 0.342222C29.0399 0.342222 28.9422 0.342222 28.8933 0.342222C28.7955 0.342222 28.7466 0.44 28.6977 0.488889L25.0311 6.11111L22.0977 0.391111C22.0977 0.342222 21.9999 0.293333 21.9511 0.244444C21.9511 0.244444 21.8533 0.244444 21.8044 0.244444C21.7555 0.244444 21.7066 0.244444 21.6577 0.244444C21.6088 0.244444 21.5599 0.342222 21.5111 0.391111L15.0088 13.6889L1.90661 0.44C1.46661 0 0.782161 0 0.342161 0.44C0.244384 0.537778 0.146606 0.684445 0.097717 0.831111C0.097717 0.928889 0.0488281 1.07556 0.0488281 1.22222V42.6311C0.0488281 43.2667 0.537717 43.7556 1.17327 43.7556C1.80883 43.7556 1.75994 43.6578 1.95549 43.4622L21.4622 23.32L41.5066 43.5111C41.9466 43.9511 42.6311 43.9511 43.0711 43.5111C43.1688 43.4133 43.2177 43.3156 43.2666 43.1689C43.3644 42.9733 43.4133 42.7289 43.4133 42.4844L43.5111 0.391111V0.342222ZM42.631 41.6044L29.0888 15.3511L22.9288 21.7067L42.631 41.6044ZM22.3911 21.1689L28.7466 14.6667L27.2311 11.6844L20.8755 19.5556L22.4399 21.1689H22.3911ZM20.3377 19.0667L26.8888 11.0978L24.9333 7.33333L18.4799 17.2089L20.3377 19.0667ZM17.2577 19.0667L18.9199 20.7778L5.23105 37.4489L17.2088 19.0667H17.2577ZM17.9422 16.6711L24.5422 6.6L21.8044 1.27111L15.5466 14.2267L17.9422 16.6222V16.6711ZM14.5688 16.3289L16.7688 18.5289L4.49772 37.2044L14.5688 16.3289ZM13.9822 15.7422L2.24883 3.91111V39.7956L14.0311 15.7422H13.9822ZM19.4577 21.2667L20.8755 22.7333L5.62216 38.3778L19.4577 21.3156V21.2667ZM25.3244 6.69778L27.2799 10.56L30.6044 6.50222L28.8444 1.32L25.3244 6.69778ZM27.6222 11.1467L29.1866 14.1778L32.2177 11.0978L30.8488 7.13778L27.6222 11.1467ZM41.6044 38.3289L29.5777 14.8622L32.5111 11.8311L41.6044 38.3289ZM42.2399 38.4267L36.7644 7.43111L32.9511 11.3422L42.1911 38.4267H42.2399ZM32.7066 10.56L36.6177 6.55111L35.6888 1.17333L31.3377 6.50222L32.7066 10.5111V10.56ZM42.8755 38.9644L37.2533 6.94222L42.8755 1.17333V39.0133V38.9644Z" fill="#3DB174"/>
<path d="M259.6 29.8712C259.894 30.0667 260.089 30.2623 260.285 30.5556C260.431 30.8489 260.529 31.1912 260.529 31.5334C260.529 31.8756 260.431 32.2178 260.285 32.5112C260.138 32.8045 259.894 33.0489 259.6 33.1956C259.307 33.3912 259.014 33.44 258.622 33.44C258.231 33.44 257.938 33.3423 257.645 33.1956C257.351 33 257.156 32.8045 256.96 32.5112C256.814 32.2178 256.716 31.8756 256.716 31.5334C256.716 31.1912 256.814 30.8489 256.96 30.5556C257.107 30.2623 257.351 30.0178 257.645 29.8712C257.938 29.6756 258.231 29.6267 258.622 29.6267C259.014 29.6267 259.307 29.7245 259.6 29.8712ZM259.502 33.0489C259.747 32.9023 259.942 32.7067 260.089 32.4134C260.236 32.12 260.285 31.8267 260.285 31.5334C260.285 31.24 260.236 30.8978 260.089 30.6534C259.942 30.4089 259.747 30.1645 259.502 30.0178C259.258 29.8712 258.965 29.7734 258.622 29.7734C258.28 29.7734 257.987 29.8712 257.743 30.0178C257.498 30.1645 257.302 30.36 257.156 30.6534C257.009 30.8978 256.96 31.1912 256.96 31.5334C256.96 31.8756 257.009 32.1689 257.156 32.4134C257.302 32.6578 257.498 32.9023 257.743 33.0489C257.987 33.1956 258.28 33.2934 258.622 33.2934C258.965 33.2934 259.258 33.1956 259.502 33.0489ZM258.769 31.6312L259.454 32.56H259.209L258.525 31.6312H258.134V32.6089H257.938V30.4578H258.769C258.965 30.4578 259.16 30.5067 259.258 30.6045C259.356 30.7023 259.454 30.8489 259.454 31.0445C259.454 31.24 259.405 31.3867 259.258 31.4845C259.16 31.5823 258.965 31.6312 258.769 31.6312ZM258.182 31.4356H258.818C258.965 31.4356 259.062 31.4356 259.16 31.3378C259.258 31.2889 259.307 31.1423 259.307 31.0445C259.307 30.7512 259.16 30.6534 258.818 30.6534H258.182V31.4845V31.4356Z" fill="#FCFCFC"/>
</g>
<defs>
<clipPath id="clip0_710_17446">
<rect width="260.578" height="44" fill="white"/>
</clipPath>
</defs>
</svg>
